<svg width="25" height="25" viewBox="0 0 25 25" fill="none" xmlns="http://www.w3.org/2000/svg">
<path fill-rule="evenodd" clip-rule="evenodd" d="M7.65113 4.18438C10.8739 3.82715 14.1263 3.82715 17.349 4.18438C19.1334 4.38438 20.573 5.78959 20.7824 7.58021C21.1646 10.8486 21.1646 14.1504 20.7824 17.4188C20.6764 18.2888 20.2797 19.0976 19.6565 19.714C19.0333 20.3304 18.2202 20.7182 17.349 20.8146C14.1263 21.1729 10.8738 21.1729 7.65113 20.8146C6.77993 20.7182 5.96683 20.3304 5.34365 19.714C4.72047 19.0976 4.32375 18.2888 4.2178 17.4188C3.8356 14.1507 3.8356 10.8493 4.2178 7.58125C4.3237 6.71133 4.72027 5.90265 5.34325 5.2863C5.96622 4.66994 6.77908 4.28203 7.65009 4.18542L7.65113 4.18438ZM12.5001 7.29896C12.7073 7.29896 12.906 7.38127 13.0525 7.52778C13.199 7.6743 13.2813 7.87301 13.2813 8.08021V11.7188H16.9199C17.1271 11.7188 17.3258 11.8011 17.4723 11.9476C17.6188 12.0941 17.7011 12.2928 17.7011 12.5C17.7011 12.7072 17.6188 12.9059 17.4723 13.0524C17.3258 13.1989 17.1271 13.2813 16.9199 13.2813H13.2813V16.9198C13.2813 17.127 13.199 17.3257 13.0525 17.4722C12.906 17.6187 12.7073 17.701 12.5001 17.701C12.2929 17.701 12.0942 17.6187 11.9477 17.4722C11.8011 17.3257 11.7188 17.127 11.7188 16.9198V13.2813H8.0803C7.87309 13.2813 7.67438 13.1989 7.52787 13.0524C7.38136 12.9059 7.29905 12.7072 7.29905 12.5C7.29905 12.2928 7.38136 12.0941 7.52787 11.9476C7.67438 11.8011 7.87309 11.7188 8.0803 11.7188H11.7188V8.08021C11.7188 7.87301 11.8011 7.6743 11.9477 7.52778C12.0942 7.38127 12.2929 7.29896 12.5001 7.29896Z" fill="#2F80ED"/>
</svg>
