<svg width="30" height="30" viewBox="0 0 30 30" fill="none" xmlns="http://www.w3.org/2000/svg">
<g clip-path="url(#clip0_4_452)">
<path fill-rule="evenodd" clip-rule="evenodd" d="M10.0213 3.57624C11.0224 2.59991 12.3705 2.0613 13.7688 2.07888C15.1671 2.09646 16.5012 2.6688 17.4775 3.66999C18.4538 4.67119 18.9924 6.01922 18.9749 7.41753C18.9573 8.81585 18.3849 10.1499 17.3837 11.1262L17.1763 11.3125L15.625 12.6375L20.7488 18.6162C21.1613 17.7562 21.575 16.7637 21.9837 15.6175C22.1512 15.1491 22.4978 14.7663 22.9474 14.5535C23.3971 14.3406 23.9128 14.3151 24.3812 14.4825C24.8497 14.6499 25.2324 14.9966 25.4453 15.4462C25.6581 15.8958 25.6837 16.4116 25.5163 16.88C24.92 18.5487 24.29 19.99 23.6287 21.23L23.3787 21.685L25.1737 23.7787C25.4874 24.1436 25.6488 24.615 25.6245 25.0955C25.6003 25.576 25.3923 26.0288 25.0435 26.3602C24.6948 26.6917 24.232 26.8763 23.7508 26.8761C23.2697 26.8758 22.8071 26.6906 22.4587 26.3587L22.3263 26.2187L21.1425 24.8375C20.7686 25.2469 20.3659 25.6291 19.9375 25.9812C17.79 27.74 15.605 28.125 13.75 28.125C9.7125 28.125 5.625 24.905 5.625 20C5.625 18.58 6.1625 17.2712 6.80625 16.1962C7.4575 15.1075 8.2975 14.1225 9.09 13.3125C9.3975 13 9.7025 12.705 9.9975 12.4362L10.2875 12.1737L9.53875 11.3012C8.66171 10.278 8.18726 8.97038 8.20405 7.62279C8.22084 6.27521 8.72773 4.97984 9.63 3.97874L9.82875 3.76999L10.0213 3.57624ZM12.7287 15.0225C12.42 15.2975 12.0938 15.605 11.77 15.9362C11.0975 16.6237 10.4725 17.3737 10.025 18.1212C9.56875 18.8837 9.375 19.5137 9.375 20C9.375 22.595 11.5375 24.375 13.75 24.375C15.02 24.375 16.2725 24.135 17.5625 23.08C17.85 22.845 18.145 22.565 18.4487 22.2262L18.6775 21.9637L12.7287 15.0225ZM14.8263 6.22874C14.5613 5.96348 14.2077 5.80532 13.8334 5.78456C13.459 5.7638 13.0902 5.8819 12.7975 6.11624L12.6725 6.22874L12.48 6.42124L12.355 6.55874C11.8525 7.17749 11.8175 8.05874 12.2725 8.71374L12.385 8.86124L13.185 9.79249L14.74 8.46249L14.865 8.34124C15.1333 8.0527 15.2793 7.67138 15.2723 7.27743C15.2653 6.88348 15.1059 6.50758 14.8275 6.22874H14.8263Z" fill="#2F80ED"/>
</g>
<defs>
<clipPath id="clip0_4_452">
<rect width="30" height="30" fill="white"/>
</clipPath>
</defs>
</svg>
