<svg width="30" height="30" viewBox="0 0 30 30" fill="none" xmlns="http://www.w3.org/2000/svg">
<path d="M17.8124 3.28124C16.8884 3.27877 15.973 3.45944 15.1192 3.8128C14.2654 4.16617 13.4901 4.68523 12.838 5.33999L4.22242 13.9575C3.95812 14.2213 3.80943 14.5793 3.80908 14.9527C3.80873 15.3262 3.95674 15.6844 4.22055 15.9487C4.48435 16.213 4.84235 16.3617 5.21578 16.3621C5.58922 16.3624 5.94749 16.2144 6.2118 15.9506L14.8312 7.32937C15.633 6.59222 16.6887 6.19343 17.7776 6.2163C18.8665 6.23917 19.9045 6.68194 20.6747 7.45211C21.4448 8.22228 21.8876 9.26026 21.9105 10.3492C21.9334 11.4381 21.5346 12.4938 20.7974 13.2956L10.8543 23.2387C10.5877 23.4871 10.2351 23.6224 9.87082 23.6159C9.5065 23.6095 9.15891 23.4619 8.90126 23.2043C8.64361 22.9466 8.49602 22.599 8.48959 22.2347C8.48317 21.8704 8.6184 21.5178 8.8668 21.2512L18.8099 11.3081C19.0742 11.0441 19.2228 10.6858 19.223 10.3122C19.2232 9.93861 19.0749 9.58024 18.8109 9.31593C18.5468 9.05163 18.1886 8.90304 17.815 8.90287C17.4414 8.90269 17.083 9.05094 16.8187 9.31499L6.87367 19.2619C6.13652 20.0637 5.73773 21.1194 5.7606 22.2083C5.78347 23.2972 6.22624 24.3352 6.99641 25.1054C7.76658 25.8755 8.80456 26.3183 9.8935 26.3412C10.9824 26.3641 12.0381 25.9653 12.8399 25.2281L22.783 15.285C23.4383 14.6336 23.9578 13.8587 24.3115 13.0052C24.6652 12.1516 24.8461 11.2364 24.8437 10.3125C24.8417 8.4483 24.1003 6.66103 22.7821 5.34284C21.4639 4.02466 19.6766 3.28323 17.8124 3.28124Z" fill="#2F80ED"/>
</svg>
