<svg width="25" height="26" viewBox="0 0 25 26" fill="none" xmlns="http://www.w3.org/2000/svg">
<path d="M10.625 5.77252H14.375C14.375 5.27524 14.1775 4.79833 13.8258 4.4467C13.4742 4.09507 12.9973 3.89752 12.5 3.89752C12.0027 3.89752 11.5258 4.09507 11.1742 4.4467C10.8225 4.79833 10.625 5.27524 10.625 5.77252ZM9.375 5.77252C9.375 4.94372 9.70424 4.14886 10.2903 3.56281C10.8763 2.97676 11.6712 2.64752 12.5 2.64752C13.3288 2.64752 14.1237 2.97676 14.7097 3.56281C15.2958 4.14886 15.625 4.94372 15.625 5.77252H21.875C22.0408 5.77252 22.1997 5.83837 22.3169 5.95558C22.4342 6.07279 22.5 6.23176 22.5 6.39752C22.5 6.56328 22.4342 6.72225 22.3169 6.83946C22.1997 6.95667 22.0408 7.02252 21.875 7.02252H20.5575L19.065 19.9525C18.9595 20.8665 18.5217 21.7098 17.8348 22.322C17.148 22.9342 16.2601 23.2725 15.34 23.2725H9.66C8.73994 23.2725 7.85202 22.9342 7.16517 22.322C6.47833 21.7098 6.0405 20.8665 5.935 19.9525L4.4425 7.02252H3.125C2.95924 7.02252 2.80027 6.95667 2.68306 6.83946C2.56585 6.72225 2.5 6.56328 2.5 6.39752C2.5 6.23176 2.56585 6.07279 2.68306 5.95558C2.80027 5.83837 2.95924 5.77252 3.125 5.77252H9.375ZM11.25 10.7725C11.25 10.6068 11.1842 10.4478 11.0669 10.3306C10.9497 10.2134 10.7908 10.1475 10.625 10.1475C10.4592 10.1475 10.3003 10.2134 10.1831 10.3306C10.0658 10.4478 10 10.6068 10 10.7725V18.2725C10 18.4383 10.0658 18.5973 10.1831 18.7145C10.3003 18.8317 10.4592 18.8975 10.625 18.8975C10.7908 18.8975 10.9497 18.8317 11.0669 18.7145C11.1842 18.5973 11.25 18.4383 11.25 18.2725V10.7725ZM14.375 10.1475C14.2092 10.1475 14.0503 10.2134 13.9331 10.3306C13.8158 10.4478 13.75 10.6068 13.75 10.7725V18.2725C13.75 18.4383 13.8158 18.5973 13.9331 18.7145C14.0503 18.8317 14.2092 18.8975 14.375 18.8975C14.5408 18.8975 14.6997 18.8317 14.8169 18.7145C14.9342 18.5973 15 18.4383 15 18.2725V10.7725C15 10.6068 14.9342 10.4478 14.8169 10.3306C14.6997 10.2134 14.5408 10.1475 14.375 10.1475Z" fill="#2F80ED"/>
</svg>
