<svg width="30" height="30" viewBox="0 0 30 30" fill="none" xmlns="http://www.w3.org/2000/svg">
<path fill-rule="evenodd" clip-rule="evenodd" d="M18.75 3.75125C18.9142 3.75125 19.0767 3.78358 19.2284 3.8464C19.38 3.90922 19.5178 4.00129 19.6339 4.11737C19.75 4.23344 19.842 4.37124 19.9049 4.5229C19.9677 4.67455 20 4.8371 20 5.00125C20 5.1654 19.9677 5.32795 19.9049 5.47961C19.842 5.63126 19.75 5.76906 19.6339 5.88514C19.5178 6.00121 19.38 6.09328 19.2284 6.1561C19.0767 6.21892 18.9142 6.25125 18.75 6.25125H7.5V22.5013C7.5 22.8328 7.6317 23.1507 7.86612 23.3851C8.10054 23.6196 8.41848 23.7513 8.75 23.7513H18.75C19.0815 23.7513 19.3995 23.8829 19.6339 24.1174C19.8683 24.3518 20 24.6697 20 25.0013C20 25.3328 19.8683 25.6507 19.6339 25.8851C19.3995 26.1196 19.0815 26.2513 18.75 26.2513H8.75C7.75544 26.2513 6.80161 25.8562 6.09835 25.1529C5.39509 24.4496 5 23.4958 5 22.5013V5.00125C5 4.66973 5.1317 4.35179 5.36612 4.11737C5.60054 3.88295 5.91848 3.75125 6.25 3.75125H18.75ZM20.8838 10.3675C20.709 10.1928 20.4864 10.0738 20.2441 10.0256C20.0018 9.97733 19.7506 10.002 19.5223 10.0964C19.2939 10.1908 19.0987 10.3508 18.9613 10.5561C18.8238 10.7615 18.7503 11.0029 18.75 11.25V13.75H11.25C10.9185 13.75 10.6005 13.8817 10.3661 14.1161C10.1317 14.3505 10 14.6685 10 15C10 15.3315 10.1317 15.6495 10.3661 15.8839C10.6005 16.1183 10.9185 16.25 11.25 16.25H18.75V18.75C18.7501 18.9972 18.8234 19.2388 18.9607 19.4443C19.0981 19.6498 19.2933 19.81 19.5217 19.9046C19.7501 19.9992 20.0013 20.0239 20.2438 19.9757C20.4862 19.9275 20.7089 19.8085 20.8838 19.6338L24.6338 15.8838C24.8681 15.6493 24.9997 15.3315 24.9997 15C24.9997 14.6685 24.8681 14.3507 24.6338 14.1163L20.8838 10.3675Z" fill="#2F80ED"/>
</svg>
