<svg width="25" height="25" viewBox="0 0 25 25" fill="none" xmlns="http://www.w3.org/2000/svg">
<g clip-path="url(#clip0_2_449)">
<path d="M12.5001 2.08334L12.622 2.09064C12.8545 2.11806 13.071 2.22301 13.2365 2.38856C13.4021 2.55412 13.507 2.77062 13.5345 3.00314L13.5417 3.12501V7.29168L13.547 7.44793C13.5842 7.94394 13.7977 8.41025 14.1489 8.76254C14.5 9.11484 14.9657 9.32987 15.4615 9.36876L15.6251 9.37501H19.7917L19.9136 9.3823C20.1461 9.40972 20.3626 9.51468 20.5282 9.68023C20.6937 9.84578 20.7987 10.0623 20.8261 10.2948L20.8334 10.4167V19.7917C20.8335 20.5888 20.5289 21.3558 19.9821 21.9357C19.4352 22.5156 18.6875 22.8647 17.8917 22.9115L17.7084 22.9167H7.29175C6.49465 22.9167 5.72767 22.6122 5.14773 22.0653C4.56778 21.5185 4.21872 20.7707 4.17196 19.975L4.16675 19.7917V5.20834C4.1667 4.41125 4.47125 3.64427 5.01809 3.06432C5.56492 2.48438 6.31269 2.13531 7.10841 2.08855L7.29175 2.08334H12.5001Z" fill="#2F80ED"/>
<path d="M19.7917 7.29167H15.6251L15.624 3.12396L19.7917 7.29167Z" fill="#2F80ED"/>
</g>
<defs>
<clipPath id="clip0_2_449">
<rect width="25" height="25" fill="white"/>
</clipPath>
</defs>
</svg>
