<svg width="25" height="25" viewBox="0 0 25 25" fill="none" xmlns="http://www.w3.org/2000/svg">
<path d="M5.20833 21.875C4.63542 21.875 4.14479 21.6708 3.73646 21.2625C3.32813 20.8542 3.12431 20.3639 3.125 19.7917V5.20833C3.125 4.63542 3.32917 4.14479 3.7375 3.73646C4.14584 3.32813 4.63611 3.12431 5.20833 3.125H19.7917C20.3646 3.125 20.8552 3.32917 21.2635 3.7375C21.6719 4.14584 21.8757 4.63611 21.875 5.20833V19.7917C21.875 20.3646 21.6708 20.8552 21.2625 21.2635C20.8542 21.6719 20.3639 21.8757 19.7917 21.875H5.20833ZM6.25 17.7083H18.75L14.8438 12.5L11.7188 16.6667L9.375 13.5417L6.25 17.7083Z" fill="#2F80ED"/>
</svg>
