<svg width="25" height="25" viewBox="0 0 25 25" fill="none" xmlns="http://www.w3.org/2000/svg">
<path d="M12.4999 11.9792C11.8093 11.9792 11.1469 11.7048 10.6585 11.2164C10.1701 10.7281 9.89575 10.0657 9.89575 9.37501C9.89575 8.68434 10.1701 8.02196 10.6585 7.53359C11.1469 7.04521 11.8093 6.77084 12.4999 6.77084C13.1906 6.77084 13.853 7.04521 14.3413 7.53359C14.8297 8.02196 15.1041 8.68434 15.1041 9.37501C15.1041 9.71699 15.0367 10.0556 14.9059 10.3716C14.775 10.6875 14.5832 10.9746 14.3413 11.2164C14.0995 11.4583 13.8124 11.6501 13.4965 11.7809C13.1805 11.9118 12.8419 11.9792 12.4999 11.9792ZM12.4999 2.08334C10.566 2.08334 8.71138 2.85157 7.34393 4.21902C5.97648 5.58648 5.20825 7.44114 5.20825 9.37501C5.20825 14.8438 12.4999 22.9167 12.4999 22.9167C12.4999 22.9167 19.7916 14.8438 19.7916 9.37501C19.7916 7.44114 19.0234 5.58648 17.6559 4.21902C16.2885 2.85157 14.4338 2.08334 12.4999 2.08334Z" fill="#2F80ED"/>
</svg>
