<svg width="30" height="30" viewBox="0 0 30 30" fill="none" xmlns="http://www.w3.org/2000/svg">
<path d="M3.915 2.02876C2.80125 1.47189 1.56563 2.53126 1.94719 3.7172L4.62657 12.045C4.67924 12.2087 4.77594 12.3548 4.90607 12.4672C5.0362 12.5797 5.19476 12.6541 5.36438 12.6825L16.4916 14.5378C17.0138 14.625 17.0138 15.375 16.4916 15.4622L5.36532 17.3166C5.19552 17.3448 5.03677 17.4192 4.90646 17.5316C4.77615 17.6441 4.67932 17.7902 4.62657 17.9541L1.94719 26.2847C1.56563 27.4706 2.80032 28.53 3.915 27.9731L27.3469 16.2591C28.3838 15.7406 28.3838 14.2622 27.3469 13.7428L3.915 2.02876Z" fill="#2F80ED"/>
</svg>
